<?xml version="1.0" encoding="UTF-8" standalone="no"?>
<svg
   xmlns:dc="http://purl.org/dc/elements/1.1/"
   xmlns:cc="http://creativecommons.org/ns#"
   xmlns:rdf="http://www.w3.org/1999/02/22-rdf-syntax-ns#"
   xmlns:svg="http://www.w3.org/2000/svg"
   xmlns="http://www.w3.org/2000/svg"
   xmlns:sodipodi="http://sodipodi.sourceforge.net/DTD/sodipodi-0.dtd"
   xmlns:inkscape="http://www.inkscape.org/namespaces/inkscape"
   version="1.1"
   width="255.83647"
   height="39.620644"
   viewBox="-1 -1 255.83647 39.620644"
   id="svg2"
   inkscape:version="0.91 r13725"
   sodipodi:docname="jellybeans-together.svg">
  <metadata
     id="metadata15">
    <rdf:RDF>
      <cc:Work
         rdf:about="">
        <dc:format>image/svg+xml</dc:format>
        <dc:type
           rdf:resource="http://purl.org/dc/dcmitype/StillImage" />
        <dc:title></dc:title>
      </cc:Work>
    </rdf:RDF>
  </metadata>
  <defs
     id="defs13" />
  <sodipodi:namedview
     pagecolor="#ffffff"
     bordercolor="#666666"
     borderopacity="1"
     objecttolerance="10"
     gridtolerance="10"
     guidetolerance="10"
     inkscape:pageopacity="0"
     inkscape:pageshadow="2"
     inkscape:window-width="836"
     inkscape:window-height="1007"
     id="namedview11"
     showgrid="false"
     inkscape:zoom="2.3963063"
     inkscape:cx="118.74305"
     inkscape:cy="-2.1940778"
     inkscape:window-x="840"
     inkscape:window-y="20"
     inkscape:window-maximized="0"
     inkscape:current-layer="svg2"
     fit-margin-top="0"
     fit-margin-left="0"
     fit-margin-right="0"
     fit-margin-bottom="0" />
  <path
     id="path9-3"
     d="m 221.80427,9.7232071 c 6.6834,-1.943057 12.31766,-7.937654 19.27502,-8.07998 4.70596,-0.09681 10.43314,2.904184 12.1817,7.192453 1.66751,4.6065699 -0.64695,10.6604339 -4.03725,14.0094079 -5.82049,5.749174 -12.69337,8.9417 -21.71571,11.507212 -9.02234,2.565512 -16.6216,3.378996 -24.52136,1.640353 -4.87042,-1.066565 -10.14939,-4.838548 -10.49556,-9.617076 -0.65626,-5.156111 3.53066,-10.624794 8.18966,-13.244981 6.20884,-3.4840189 14.20115,-1.394305 21.1235,-3.4073889 z"
     inkscape:connector-curvature="0"
     style="fill:#7f00ff;stroke:#7f00ff;stroke-width:2;stroke-linecap:round" />
  <!-- Exported by Scratch - http://scratch.mit.edu/ -->
  <path
     id="ID0.6853602952323854"
     d="m 156.33314,27.301064 c -6.73778,-1.745168 -14.64418,0.52837 -20.69724,-2.90465 -4.09457,-2.321628 -7.48389,-7.827899 -6.7955,-12.407506 0.92071,-4.8117979 6.0038,-8.8327639 10.62939,-9.9789219 7.94106,-1.96741296 15.48022,-1.19941896 24.54656,1.205953 9.06634,2.405372 16.01414,5.589513 21.91603,11.1209369 3.64143,3.405676 6.25149,9.345616 4.10712,13.629985 -2.07078,4.767394 -8.46433,7.328496 -13.80803,7.199876 -7.11733,-0.178096 -12.91937,-6.058587 -19.89833,-7.865673 z"
     inkscape:connector-curvature="0"
     style="fill:#ff9400;stroke:#ff9400;stroke-width:2;stroke-linecap:round" />
  <path
     id="path7"
     d="m 95.591553,25.829237 c -6.900988,0.905335 -13.380425,5.974556 -20.278677,5.05844 -4.666059,-0.619123 -9.870945,-4.455228 -10.947841,-8.959336 -0.948454,-4.806405 2.258708,-10.438468 6.118363,-13.2336129 6.626224,-4.798358 13.904288,-6.909882 23.211623,-8.07517496 9.307329,-1.165293 16.941989,-0.815046 24.485989,2.10335796 4.65191,1.793987 9.29667,6.324051 8.91298,11.0997119 -0.13454,5.195966 -5.10354,9.96522 -10.10648,11.847324 -6.666,2.500498 -14.24815,-0.778963 -21.395957,0.15929 z"
     inkscape:connector-curvature="0"
     style="fill:#ff0000;stroke:#ff0000;stroke-width:2;stroke-linecap:round" />
  <path
     id="path9"
     d="m 33.751288,12.166005 c 6.925579,0.692561 14.390448,-2.7651589 20.89791,-0.299785 4.401852,1.667075 8.594573,6.589234 8.61575,11.220243 -0.172828,4.896043 -4.580058,9.648132 -8.975513,11.489258 -7.546007,3.160517 -15.113837,3.556344 -24.441626,2.568032 C 20.52002,36.15544 13.166497,34.073054 6.4870047,29.510883 2.3669047,26.703145 -1.1221693,21.233075 0.34067074,16.67081 1.6567997,11.642494 7.5826297,8.1323231 12.88298,7.4409401 19.9436,6.5267851 26.577884,11.449198 33.751288,12.166005 Z"
     inkscape:connector-curvature="0"
     style="fill:#7f00ff;stroke:#7f00ff;stroke-width:2;stroke-linecap:round" />
  <text
     xml:space="preserve"
     style="font-style:normal;font-variant:normal;font-weight:bold;font-stretch:normal;font-size:20px;line-height:125%;font-family:Purisa;-inkscape-font-specification:'Purisa Bold';letter-spacing:0px;word-spacing:0px;fill:#000000;fill-opacity:1;stroke:none;stroke-width:1px;stroke-linecap:butt;stroke-linejoin:miter;stroke-opacity:1"
     x="22.180803"
     y="26.127701"
     id="text3358"
     sodipodi:linespacing="125%"><tspan
       sodipodi:role="line"
       id="tspan3360"
       x="22.180803"
       y="26.127701">a</tspan></text>
  <text
     xml:space="preserve"
     style="font-style:normal;font-variant:normal;font-weight:bold;font-stretch:normal;font-size:20px;line-height:125%;font-family:Purisa;-inkscape-font-specification:'Purisa Bold';letter-spacing:0px;word-spacing:0px;fill:#000000;fill-opacity:1;stroke:none;stroke-width:1px;stroke-linecap:butt;stroke-linejoin:miter;stroke-opacity:1"
     x="88.885735"
     y="19.67053"
     id="text3358-7"
     sodipodi:linespacing="125%"><tspan
       sodipodi:role="line"
       id="tspan3360-9"
       x="88.885735"
       y="19.67053">x</tspan></text>
  <text
     xml:space="preserve"
     style="font-style:normal;font-variant:normal;font-weight:bold;font-stretch:normal;font-size:20px;line-height:125%;font-family:Purisa;-inkscape-font-specification:'Purisa Bold';letter-spacing:0px;word-spacing:0px;fill:#000000;fill-opacity:1;stroke:none;stroke-width:1px;stroke-linecap:butt;stroke-linejoin:miter;stroke-opacity:1"
     x="152.56371"
     y="19.094257"
     id="text3358-8"
     sodipodi:linespacing="125%"><tspan
       sodipodi:role="line"
       id="tspan3360-1"
       x="152.56371"
       y="19.094257">s</tspan></text>
  <text
     xml:space="preserve"
     style="font-style:normal;font-variant:normal;font-weight:bold;font-stretch:normal;font-size:20px;line-height:125%;font-family:Purisa;-inkscape-font-specification:'Purisa Bold';letter-spacing:0px;word-spacing:0px;fill:#000000;fill-opacity:1;stroke:none;stroke-width:1px;stroke-linecap:butt;stroke-linejoin:miter;stroke-opacity:1"
     x="217.39423"
     y="26.009514"
     id="text3358-0"
     sodipodi:linespacing="125%"><tspan
       sodipodi:role="line"
       id="tspan3360-7"
       x="217.39423"
       y="26.009514">a</tspan></text>
</svg>
