<?xml version="1.0" encoding="UTF-8" standalone="no"?>
<svg
   xmlns:dc="http://purl.org/dc/elements/1.1/"
   xmlns:cc="http://creativecommons.org/ns#"
   xmlns:rdf="http://www.w3.org/1999/02/22-rdf-syntax-ns#"
   xmlns:svg="http://www.w3.org/2000/svg"
   xmlns="http://www.w3.org/2000/svg"
   xmlns:sodipodi="http://sodipodi.sourceforge.net/DTD/sodipodi-0.dtd"
   xmlns:inkscape="http://www.inkscape.org/namespaces/inkscape"
   version="1.1"
   x="0"
   y="0"
   width="570.02802"
   height="411.90506"
   viewBox="0 0 570.02801 411.90505"
   id="svg2"
   inkscape:version="0.48.5 r10040"
   sodipodi:docname="truck.pdf">
  <metadata
     id="metadata303">
    <rdf:RDF>
      <cc:Work
         rdf:about="">
        <dc:format>image/svg+xml</dc:format>
        <dc:type
           rdf:resource="http://purl.org/dc/dcmitype/StillImage" />
        <dc:title></dc:title>
      </cc:Work>
    </rdf:RDF>
  </metadata>
  <defs
     id="defs301" />
  <sodipodi:namedview
     pagecolor="#ffffff"
     bordercolor="#666666"
     borderopacity="1"
     objecttolerance="10"
     gridtolerance="10"
     guidetolerance="10"
     inkscape:pageopacity="0"
     inkscape:pageshadow="2"
     inkscape:window-width="796"
     inkscape:window-height="1157"
     id="namedview299"
     showgrid="false"
     fit-margin-top="0"
     fit-margin-left="0"
     fit-margin-right="0"
     fit-margin-bottom="0"
     inkscape:zoom="0.86946375"
     inkscape:cx="233.4701"
     inkscape:cy="248.95213"
     inkscape:window-x="800"
     inkscape:window-y="20"
     inkscape:window-maximized="0"
     inkscape:current-layer="svg2" />
  <path
     d="m 456.6,226.62606 -96.6,52.912 29.156,97.932 -105.965,-48.965 -35.757,83.4 -70.078,-92.634 -95.278003,52.922 15.834,-113.879 L -2.7479264e-6,186.90506 107.156,168.31406 80.755997,63.792058 174.712,108.79206 231.6,8.226058 279.234,121.98306 389.156,73.027058 352.078,178.98306 z"
     id="path195"
     inkscape:connector-curvature="0"
     style="fill:#f7c024" />
  <path
     d="m 570.028,88.101058 c 0,3.62 -44.278,142.577002 -51.956,166.444002 -3.488,-0.824 -6.844,-1.554 -9.244,-2.034 10.078,-34.922 44.156,-153.479002 44.156,-159.479002 0,-6.963 -189.956,-69.963 -249,-92.99999999 6,-1.93100001 266.044,83.99999999 266.044,88.06899999"
     id="path197"
     inkscape:connector-curvature="0"
     style="fill:#777776" />
  <path
     d="m 345.028,34.101058 185.044,66.967002 -1.088,6 z"
     id="path199"
     inkscape:connector-curvature="0"
     style="fill:#777776" />
  <path
     d="m 521.072,127.10106 0,6.967 -180,-75.000002 z"
     id="path201"
     inkscape:connector-curvature="0"
     style="fill:#777776" />
  <path
     d="m 539.072,265.10106 c 0,6.967 -9,30.967 -17.044,28.931 -13.444,-3.355 -23.878,-12.121 -26.4,-14.409 -0.356,-0.346 -0.6,-0.591 -0.6,-0.591 0,0 6.956,-27 9.956,-27 0.478,0 1.922,0.245 3.844,0.479 2.4,0.479 5.756,1.209 9.244,2.034 9.59,2.4 21,6.243 21,10.556"
     id="path203"
     inkscape:connector-curvature="0"
     style="fill:#efebd8" />
  <path
     d="m 477.984,164.06806 c 0,8.033 -6.956,110.033 -6.956,110.033 l -212.044,-71.033 c 0,0 63,-87.967 69,-87 6,0.964 150,39.964 150,48"
     id="path205"
     inkscape:connector-curvature="0"
     style="fill:#6bc2bf" />
  <path
     d="m 471.75,345.03206 c -2.166,5.645 -4.2,10.688 -5.766,14.513 l -16.912,-6.477 7.912,-15 z"
     id="path207"
     inkscape:connector-curvature="0"
     style="fill:#dd672b" />
  <path
     d="m 459.984,314.06806 -12,33.964 -33,-12.964 13.088,-30.967 z"
     id="path209"
     inkscape:connector-curvature="0"
     style="fill:#cbcccb" />
  <path
     d="m 407.072,373.10106 28.912,9 c 0,0 -15.956,25.931 -25.912,27 -10.088,0.967 -18,-12 -18,-15 0,-3 15,-21 15,-21"
     id="path211"
     inkscape:connector-curvature="0"
     style="fill:#343534" />
  <path
     d="m 407.072,298.10106 -2.766,11.522 -117.6,-36.712 3.366,-8.879 z"
     id="path213"
     inkscape:connector-curvature="0"
     style="fill:#cbcccb" />
  <path
     d="m 404.306,309.62306 -3,12.966 -119.644,-36.713 5.044,-12.965 z"
     id="path215"
     inkscape:connector-curvature="0"
     style="fill:#777776" />
  <path
     d="m 401.306,322.58906 -2.278,9.479 -120.956,-36.967 3.59,-9.225 z"
     id="path217"
     inkscape:connector-curvature="0"
     style="fill:#cbcccb" />
  <path
     d="m 363.028,341.06906 -5.044,11.876 c -21.712,-6.355 -44.522,-13.068 -65.634,-19.19 l 2.634,-11.654 z"
     id="path219"
     inkscape:connector-curvature="0"
     style="fill:#efebd8" />
  <path
     d="m 357.984,352.94506 -3.956,9.123 -63.956,-18 2.278,-10.313 c 21.112,6.121 43.922,12.834 65.634,19.19"
     id="path221"
     inkscape:connector-curvature="0"
     style="fill:#efebd8" />
  <path
     d="m 278.072,257.06806 -10.088,36 -31.912,-11.036 7.912,-34.931 z"
     id="path223"
     inkscape:connector-curvature="0"
     style="fill:#cbcccb" />
  <path
     d="m 243.984,247.10106 -7.912,34.931 31.912,11.036 10.088,-36 z m 160.322,62.522 2.766,-11.522 -117,-34.069 -3.366,8.879 -5.044,12.965 -3.59,9.225 120.956,36.967 2.278,-9.479 z m 43.678,38.409 12,-33.964 -31.912,-9.967 -13.088,30.967 z m 44.044,-57 c -1.322,5.645 -12.122,33.591 -20.278,54 l -14.766,-6.964 -7.912,15 16.912,6.477 c -0.834,2.175 -1.556,3.844 -2.043,5.175 -29.035,-12.965 -206.391,-66.487 -248.157,-78.965 0.366,-1.81 0.966,-4.21 1.444,-7.078 l 10.8,3.355 6.956,-16.931 -14.278,-2.268 c 5.044,-23.4 11.644,-54.732 12.366,-57.732 0,0 1.434,-2.268 3.834,-6.225 15.6,-24.844 72.966,-115.565002 84.122,-113.775002 12.956,1.931 176.044,63.000002 176.044,69.000002 0,5.045 -2.166,93.619 -4.088,125.775 -0.356,5.879 -0.6,9.844 -0.956,11.156 m -21,-16.931 c 0,0 6.956,-102 6.956,-110.033 0,-8.036 -144,-47.036 -150,-48 -6,-0.967 -69,87 -69,87 z"
     id="path225"
     inkscape:connector-curvature="0"
     style="fill:#efebd8" />
  <path
     d="m 528.984,107.06806 1.088,-6 -185.044,-66.967002 z m -187.912,-48.000002 180,75.000002 0,-6.967 z M 303.984,0.03205801 c 59.044,23.03599999 249,86.03599999 249,92.99999999 0,6 -34.078,124.557002 -44.156,159.479002 -1.922,-0.234 -3.366,-0.479 -3.844,-0.479 -3,0 -9.956,27 -9.956,27 0,0 0.244,0.245 0.6,0.591 l -2.644,0.253 c 1.922,-32.156 4.088,-120.73 4.088,-125.775 0,-6 -163.088,-67.069002 -176.044,-69.000002 -11.156,-1.79 -68.522,88.931002 -84.122,113.775002 l -5.156,-5.156 4.322,-21.619 c 0,0 -2.888,-0.824 -6.966,-1.902 11.522,-28.098 69.478,-168.366002 74.878,-170.16700199"
     id="path227"
     inkscape:connector-curvature="0"
     style="fill:#cbcccb" />
  <path
     d="m 228.028,352.10106 0,-32.033 21,5.033 c 0,0 5.044,27.967 2.044,28.931 -3,1.069 -23.044,2.036 -23.044,-1.931"
     id="path229"
     inkscape:connector-curvature="0"
     style="fill:#343534" />
  <path
     d="m 234.984,265.10106 -6.956,16.931 -10.8,-3.355 c 0.956,-4.444 2.156,-9.844 3.478,-15.844 z"
     id="path231"
     inkscape:connector-curvature="0"
     style="fill:#dd672b" />
  <path
     d="m 236.072,172.10106 -4.322,21.619 -0.722,3.348 c 0,0 -30,3 -35.044,-3 -4.912,-6 3,-24 8.044,-27 3.356,-2.036 16.8,0.964 25.078,3.131 4.078,1.078 6.966,1.902 6.966,1.902"
     id="path233"
     inkscape:connector-curvature="0"
     style="fill:#efebd8" />
  <path
     d="m 463.941,364.72006 c 2.643,1.068 4.087,1.903 4.087,2.381 0,6 -5.044,15.967 -9.956,15 -2.166,-0.478 -48,-13.902 -100.088,-29.156 l 5.044,-11.877 -68.044,-18.967 -2.634,11.654 c -46.2,-13.556 -84.844,-24.844 -88.322,-25.687 -9,-2.036 -0.956,-24.967 3,-24.967 0,0 3.122,0.967 8.756,2.654 41.766,12.478 219.122,66 248.157,78.965"
     id="path235"
     inkscape:connector-curvature="0"
     style="fill:#777776" />
</svg>
